<svg xmlns="http://www.w3.org/2000/svg" xmlns:xlink="http://www.w3.org/1999/xlink" width="500" zoomAndPan="magnify" viewBox="0 0 375 374.999991" height="500" preserveAspectRatio="xMidYMid meet" version="1.2"><defs><clipPath id="2575c11412"><path d="M 187.5 112.539062 L 225.75 112.539062 L 225.75 153.789062 L 187.5 153.789062 Z M 187.5 112.539062 "/></clipPath><clipPath id="838f92dece"><path d="M 336 107.378906 L 365.363281 107.378906 L 365.363281 145.628906 L 336 145.628906 Z M 336 107.378906 "/></clipPath><clipPath id="324bb0756f"><path d="M 330.113281 123 L 360 123 L 360 136 L 330.113281 136 Z M 330.113281 123 "/></clipPath><clipPath id="b76776567d"><path d="M 287.347656 142.625 L 323.347656 142.625 L 323.347656 185.375 L 287.347656 185.375 Z M 287.347656 142.625 "/></clipPath><clipPath id="11acd94349"><path d="M 133 333 L 262.5 333 L 262.5 370 L 133 370 Z M 133 333 "/></clipPath><clipPath id="ebf38a0f12"><path d="M 112.5 328.125 L 160 328.125 L 160 374.625 L 112.5 374.625 Z M 112.5 328.125 "/></clipPath></defs><g id="1014371192"><path style=" stroke:none;fill-rule:nonzero;fill:#ffb666;fill-opacity:1;" d="M 265.128906 191.96875 L 265.128906 316.101562 L 159.265625 316.101562 L 159.265625 311.015625 C 162.960938 310.460938 166.78125 311.019531 170.476562 310.46875 C 174.511719 309.855469 178.929688 309.5625 182.949219 308.964844 L 255.910156 307.546875 L 255.910156 212.332031 L 235.554688 191.96875 Z M 265.128906 191.96875 "/><path style=" stroke:none;fill-rule:nonzero;fill:#78a9ff;fill-opacity:1;" d="M 349.09375 71.898438 C 351.945312 65.875 351.230469 58.367188 346.820312 53.019531 C 346.820312 53.019531 346.820312 53.003906 346.804688 53.003906 C 339.964844 44.707031 327.59375 45.292969 321.511719 54.316406 C 326.230469 31.835938 309.503906 10.832031 287.042969 10.597656 L 286.679688 10.597656 C 274.492188 10.597656 263.730469 16.792969 257.324219 26.238281 C 257.121094 26.515625 256.929688 26.792969 256.769531 27.085938 C 247.285156 41.84375 252.429688 56.136719 252.429688 56.941406 C 242.582031 49.613281 229.875 49.207031 219.882812 55.148438 C 204.203125 64.425781 199.472656 85.863281 209.34375 101.480469 C 210.375 102.105469 211.359375 102.542969 212.558594 102.542969 C 261.402344 102.527344 364.578125 102.585938 366.027344 102.46875 C 371.3125 99.496094 374.894531 93.605469 374.894531 86.8125 C 374.894531 72.742188 360.167969 64.382812 349.09375 71.898438 Z M 288.980469 84.394531 C 276.75 84.394531 266.847656 74.464844 266.847656 62.234375 C 266.847656 49.988281 276.75 40.058594 288.980469 40.058594 C 301.210938 40.058594 311.113281 49.988281 311.113281 62.234375 C 311.113281 74.464844 301.210938 84.394531 288.980469 84.394531 Z M 288.980469 84.394531 "/><path style=" stroke:none;fill-rule:nonzero;fill:#78a9ff;fill-opacity:1;" d="M 255.910156 309.003906 L 190.148438 309.003906 C 189.34375 309.003906 188.691406 308.351562 188.691406 307.546875 C 188.691406 306.738281 189.34375 306.085938 190.148438 306.085938 L 254.453125 306.085938 L 254.453125 212.9375 L 226.488281 184.957031 L 152.667969 184.957031 L 152.667969 265.691406 C 152.667969 266.496094 152.015625 267.148438 151.210938 267.148438 C 150.40625 267.148438 149.753906 266.496094 149.753906 265.691406 L 149.753906 183.496094 C 149.753906 182.691406 150.40625 182.039062 151.210938 182.039062 L 227.09375 182.039062 C 227.480469 182.039062 227.847656 182.191406 228.121094 182.464844 L 256.941406 211.304688 C 257.214844 211.578125 257.367188 211.945312 257.367188 212.335938 L 257.367188 307.546875 C 257.367188 308.351562 256.714844 309.003906 255.910156 309.003906 Z M 255.910156 309.003906 "/><path style=" stroke:none;fill-rule:nonzero;fill:#5278d8;fill-opacity:1;" d="M 255.871094 211.773438 L 224.628906 214.132812 L 227.628906 183.382812 C 228.625 183.882812 247.550781 202.054688 255.871094 211.773438 Z M 255.871094 211.773438 "/><path style=" stroke:none;fill-rule:nonzero;fill:#ffb666;fill-opacity:1;" d="M 278.714844 61.070312 L 288.710938 50.855469 L 299.253906 60.632812 L 294.164062 60.742188 L 294.414062 73.363281 L 283.742188 73.589844 L 283.488281 60.96875 Z M 278.714844 61.070312 "/><path style=" stroke:none;fill-rule:nonzero;fill:#000000;fill-opacity:1;" d="M 296.523438 102.550781 L 293.609375 102.550781 C 293.421875 118.496094 285.257812 133.652344 273.34375 142.144531 C 271.386719 133.601562 267.773438 124.613281 260.859375 119.167969 C 254.683594 114.304688 246.496094 113.242188 240.492188 116.527344 C 232.910156 120.664062 230.003906 131.5 234.273438 139.714844 C 239.71875 150.253906 255.183594 156.125 271.304688 146.90625 C 273.246094 158.78125 272.757812 174.765625 265.832031 186.316406 C 264.847656 187.953125 263.746094 189.550781 262.566406 191.070312 C 262.359375 191.335938 262.285156 191.652344 262.285156 191.960938 L 265.128906 191.960938 L 265.128906 192.5 C 266.277344 190.996094 267.359375 189.429688 268.328125 187.820312 C 275.890625 175.203125 276.226562 157.757812 273.976562 145.25 C 287.105469 136.488281 296.328125 120 296.523438 102.558594 C 296.523438 102.554688 296.523438 102.554688 296.523438 102.550781 Z M 236.859375 138.375 C 233.355469 131.628906 235.75 122.4375 241.886719 119.085938 C 247.132812 116.21875 254.234375 117.660156 259.058594 121.460938 C 265.621094 126.628906 269.007812 135.675781 270.738281 143.859375 C 255.898438 152.886719 241.6875 147.722656 236.859375 138.375 Z M 236.859375 138.375 "/><path style=" stroke:none;fill-rule:nonzero;fill:#000000;fill-opacity:1;" d="M 239.066406 229.332031 L 171.691406 229.332031 C 170.886719 229.332031 170.234375 229.984375 170.234375 230.789062 C 170.234375 231.597656 170.886719 232.25 171.691406 232.25 L 239.066406 232.25 C 239.871094 232.25 240.523438 231.597656 240.523438 230.789062 C 240.523438 229.984375 239.871094 229.332031 239.066406 229.332031 Z M 239.066406 229.332031 "/><path style=" stroke:none;fill-rule:nonzero;fill:#000000;fill-opacity:1;" d="M 215.375 248.046875 C 216.179688 248.046875 216.832031 247.394531 216.832031 246.585938 C 216.832031 245.78125 216.179688 245.128906 215.375 245.128906 L 173.546875 245.128906 C 172.742188 245.128906 172.089844 245.78125 172.089844 246.585938 C 172.089844 247.394531 172.742188 248.046875 173.546875 248.046875 Z M 215.375 248.046875 "/><path style=" stroke:none;fill-rule:nonzero;fill:#000000;fill-opacity:1;" d="M 234.652344 266.550781 L 201.4375 266.550781 C 199.527344 265.425781 196.960938 264.882812 194.773438 264.796875 C 197.753906 260.398438 194.65625 255.203125 189.847656 253.8125 C 186.519531 252.855469 183.101562 253.605469 180.15625 254.382812 C 171.875 256.570312 151.785156 263.132812 143.621094 267.574219 C 143.339844 266.835938 143.085938 266.089844 142.789062 265.351562 C 141.941406 263.226562 139.011719 262.273438 136.261719 263.226562 C 134.566406 263.8125 132.660156 264.578125 130.742188 265.441406 C 128.585938 266.40625 127.503906 268.339844 128.050781 270.175781 C 109.320312 274.105469 90.824219 277.621094 71.90625 281.671875 C 66.070312 261.875 61.714844 241.582031 58.976562 221.332031 C 58.867188 220.535156 58.128906 219.988281 57.335938 220.085938 C 56.539062 220.191406 55.980469 220.925781 56.089844 221.726562 C 58.839844 242.050781 63.207031 262.414062 69.050781 282.285156 C 67.839844 282.550781 66.601562 282.808594 65.40625 283.074219 C 64.621094 283.246094 64.125 284.023438 64.296875 284.8125 C 64.464844 285.578125 65.222656 286.09375 66.03125 285.921875 C 84.527344 281.84375 110.183594 276.90625 128.910156 272.972656 C 133.183594 286.589844 135.535156 300.679688 137.304688 314.144531 C 114.039062 319.738281 87.0625 325.511719 59.609375 324.863281 C 49.609375 324.621094 37.167969 323.320312 29.675781 315.339844 C 23.128906 308.347656 20.347656 298.941406 17.632812 288.261719 C 13.730469 272.972656 11.769531 257.023438 8.011719 241.570312 C 3.429688 222.746094 0.261719 202.921875 8.015625 185.460938 C 13.691406 172.691406 24.976562 163.382812 38.980469 159.925781 C 54.792969 156.023438 70.925781 156.894531 87.628906 155.96875 C 90.039062 164.253906 98.304688 170.636719 107.238281 170.457031 C 114.988281 170.273438 122.195312 165.046875 125.191406 157.96875 C 125.214844 157.964844 125.238281 157.972656 125.257812 157.964844 C 142.273438 154.292969 162.28125 158.578125 172.421875 164.976562 C 177.644531 168.273438 184.300781 173.863281 187.121094 182.035156 L 190.183594 182.035156 C 187.777344 174.117188 180.808594 166.460938 174.777344 162.882812 C 161.550781 155.015625 142.351562 151.855469 126.40625 154.785156 C 126.40625 154.765625 126.414062 154.746094 126.414062 154.726562 C 126.464844 155.511719 125.289062 135.078125 125.273438 134.824219 C 130.523438 133.21875 135.144531 130.386719 138.628906 126.550781 C 138.570312 126.695312 145.242188 127.335938 151.777344 124.351562 C 159.117188 121.015625 167.667969 112.484375 165.117188 103.5625 C 163.777344 98.898438 159.90625 96.464844 155.886719 94.421875 C 153.789062 95.347656 150.59375 96.289062 148.355469 96.289062 C 144.941406 96.289062 143.308594 93.84375 143.726562 91.855469 C 144.121094 89.945312 146.203125 88.96875 147.976562 89.117188 C 150.179688 89.292969 151.742188 90.675781 154.75 91.550781 C 155.917969 90.589844 157.371094 87.960938 157.878906 86.519531 C 158.898438 83.679688 158.609375 80.382812 157.109375 77.757812 C 155.59375 75.121094 153.453125 74.347656 151.023438 72.890625 C 149.113281 71.738281 149.871094 68.515625 149.742188 66.621094 C 149.449219 62.628906 149.054688 58.632812 148.050781 54.753906 C 145.472656 44.636719 138.804688 35.917969 129.878906 30.570312 C 112.996094 20.457031 84.597656 22.519531 69.125 39.492188 C 57.128906 52.6875 55.070312 73.542969 53.617188 93.445312 C 52.757812 105.238281 52.753906 113.453125 63.402344 117.980469 C 66.78125 118.171875 70.175781 117.953125 73.496094 117.324219 C 74.078125 117.210938 74.660156 117.601562 74.777344 118.199219 C 74.878906 118.785156 74.5 119.351562 73.902344 119.46875 C 70.253906 120.15625 66.558594 120.386719 62.964844 120.152344 C 61.859375 120.839844 60.738281 121.671875 60.492188 121.890625 C 55.9375 125.722656 53.042969 134.144531 58.042969 137.722656 C 62.875 141.152344 70.640625 141.886719 76.597656 141.699219 C 80.128906 141.59375 86.539062 142.035156 89.859375 139.488281 L 89.039062 153.070312 C 88.28125 152.886719 89.828125 153.144531 74.261719 153.539062 C 62.445312 153.839844 50.222656 154.148438 38.285156 157.09375 C 23.402344 160.769531 11.398438 170.675781 5.355469 184.277344 C 1.300781 193.402344 0.0820312 203.058594 0.464844 212.851562 C 0.460938 212.898438 0.4375 212.945312 0.4375 212.996094 C 1.011719 235.265625 0.789062 288.5625 0.460938 317.570312 C 0.449219 318.375 1.09375 319.035156 1.898438 319.042969 C 1.90625 319.042969 1.910156 319.042969 1.914062 319.042969 C 2.710938 319.042969 3.363281 318.402344 3.371094 317.605469 C 3.617188 296.109375 3.800781 261.289062 3.648438 235.601562 C 12.5625 276.664062 11.207031 274.859375 14.8125 288.984375 C 16.984375 297.527344 19.957031 309.226562 27.554688 317.335938 C 35.785156 326.105469 48.972656 327.523438 59.539062 327.78125 C 86.171875 328.402344 112.027344 323.210938 137.679688 317.054688 C 137.855469 318.460938 137.917969 319.71875 139.585938 320.761719 C 141.105469 321.71875 143.167969 321.792969 144.921875 321.203125 C 146.367188 320.710938 147.78125 320.191406 149.101562 319.738281 C 151.328125 318.980469 152.808594 317.230469 152.78125 315.394531 C 152.773438 314.757812 152.730469 314.128906 152.710938 313.5 C 157.203125 312.699219 159.882812 312.554688 163.449219 312.375 C 170.222656 312.03125 170.464844 311.890625 174.191406 311.632812 C 183.097656 311.011719 198.375 309.660156 197.527344 300.65625 C 197.328125 298.589844 195.871094 296.964844 194.09375 295.96875 C 195.023438 295.613281 196.011719 295.214844 197.09375 294.757812 C 203.867188 291.890625 205.039062 285.351562 199.550781 281.558594 C 202.335938 280.304688 204.675781 278.578125 205.53125 275.703125 C 206.152344 273.613281 205.671875 271.355469 204.457031 269.464844 L 234.652344 269.464844 C 235.453125 269.464844 236.105469 268.8125 236.105469 268.007812 C 236.105469 267.203125 235.453125 266.550781 234.652344 266.550781 Z M 104.554688 57.976562 C 106.1875 56.023438 108.355469 52.566406 111.328125 52.84375 C 112.535156 52.945312 113.117188 54.726562 113.890625 55.46875 C 117.78125 59.152344 122.121094 56.179688 125.828125 56.199219 C 128.570312 56.214844 131.289062 57.800781 132.964844 61.792969 C 135.703125 85.753906 141.167969 95.976562 142.320312 105.765625 C 144.230469 121.519531 131.6875 133.296875 115.171875 133.433594 C 110.269531 133.472656 105.75 132.855469 101.71875 131.601562 C 100.949219 131.363281 100.132812 131.789062 99.894531 132.558594 C 99.65625 133.328125 100.085938 134.144531 100.851562 134.382812 C 107.296875 136.394531 115.644531 137 122.398438 135.566406 L 123.445312 153.839844 C 121.925781 161.375 114.855469 167.363281 107.167969 167.539062 C 100.753906 167.710938 94.605469 163.808594 91.644531 158.199219 C 92.027344 151.769531 93.285156 131.523438 93.25 131.019531 C 93.277344 130.546875 93.101562 130.070312 92.691406 129.765625 C 86.652344 125.265625 78.367188 112.4375 76.542969 94.824219 L 76.414062 93.546875 C 76.328125 92.746094 75.609375 92.175781 74.8125 92.253906 C 74.011719 92.335938 73.429688 93.054688 73.515625 93.855469 L 73.582031 94.503906 C 67.664062 97.21875 61.140625 92.75 61.140625 86.285156 C 61.140625 79.320312 68.578125 75.046875 74.351562 78.484375 C 74.847656 78.777344 75.449219 78.734375 75.902344 78.429688 C 87.28125 75.785156 97.261719 66.753906 104.554688 57.976562 Z M 148.160156 316.980469 C 146.695312 317.480469 145.539062 317.914062 143.988281 318.441406 C 142.476562 318.949219 140.796875 318.480469 140.707031 317.753906 C 138.695312 301.667969 136.027344 284.886719 130.835938 269.359375 C 130.726562 269.039062 131.117188 268.46875 131.933594 268.101562 C 133.773438 267.273438 135.601562 266.542969 137.210938 265.984375 C 138.605469 265.5 139.898438 265.960938 140.085938 266.433594 C 146.339844 282.09375 149.632812 298.578125 149.871094 315.433594 C 149.875 315.902344 149.238281 316.613281 148.160156 316.980469 Z M 202.738281 274.871094 C 201.582031 278.753906 194.878906 280 193.9375 280.511719 C 184.0625 283.761719 180.351562 284.464844 169.3125 287.234375 C 167.460938 287.695312 168.132812 290.535156 170.023438 290.058594 C 181.320312 287.226562 184.96875 286.546875 195.253906 283.148438 C 197.441406 282.863281 200.660156 285.628906 200.03125 288.152344 C 199.65625 289.644531 198.058594 291.183594 195.960938 292.070312 C 185.765625 296.386719 183.855469 295.558594 172.667969 297.050781 C 171.871094 297.15625 171.308594 297.890625 171.414062 298.6875 C 171.519531 299.480469 172.242188 300.046875 173.050781 299.941406 C 181.160156 298.859375 184.558594 298.996094 189.996094 297.378906 C 190.210938 297.613281 190.492188 297.796875 190.832031 297.847656 C 192.546875 298.113281 194.480469 299.417969 194.625 300.933594 C 195.484375 310.046875 166.304688 308.167969 152.605469 310.554688 C 151.9375 296.792969 149.273438 283.304688 144.648438 270.328125 C 152.339844 266.003906 172.609375 259.394531 180.902344 257.199219 C 183.46875 256.519531 186.421875 255.863281 189.039062 256.617188 C 191.222656 257.246094 193.332031 259.402344 193 261.605469 C 192.570312 264.457031 188.804688 265.808594 188.464844 266.113281 C 180.476562 270.019531 168.785156 272.882812 167.90625 273.144531 C 166.304688 273.621094 166.644531 276 168.320312 276 C 169.710938 276 184.761719 271.449219 190.609375 268.28125 C 193.296875 267.261719 196.765625 267.691406 199.152344 268.644531 C 201.453125 269.566406 203.488281 272.347656 202.738281 274.871094 Z M 202.738281 274.871094 "/><path style=" stroke:none;fill-rule:nonzero;fill:#000000;fill-opacity:1;" d="M 125.675781 70.800781 C 127.585938 70.476562 129.65625 70.832031 131.351562 71.78125 C 132.046875 72.175781 132.9375 71.929688 133.332031 71.222656 C 133.726562 70.523438 133.476562 69.632812 132.777344 69.238281 C 130.476562 67.949219 127.78125 67.476562 125.183594 67.929688 C 124.390625 68.0625 123.855469 68.820312 123.992188 69.613281 C 124.128906 70.40625 124.878906 70.941406 125.675781 70.800781 Z M 125.675781 70.800781 "/><path style=" stroke:none;fill-rule:nonzero;fill:#000000;fill-opacity:1;" d="M 125.4375 95.902344 C 125.332031 97.144531 124.191406 98.269531 123.207031 99.113281 C 122.597656 99.636719 122.527344 100.554688 123.046875 101.167969 C 123.574219 101.78125 124.492188 101.847656 125.101562 101.328125 C 126.507812 100.125 128.144531 98.445312 128.339844 96.148438 C 128.550781 93.640625 127.523438 92.449219 121.414062 81.921875 C 121.011719 81.226562 120.121094 80.992188 119.425781 81.394531 C 118.730469 81.800781 118.492188 82.691406 118.898438 83.386719 C 124.636719 93.355469 125.5625 94.402344 125.4375 95.902344 Z M 125.4375 95.902344 "/><path style=" stroke:none;fill-rule:nonzero;fill:#000000;fill-opacity:1;" d="M 98.519531 74.839844 C 100.023438 72.84375 102.601562 71.714844 105.082031 71.976562 C 105.878906 72.042969 106.597656 71.476562 106.679688 70.675781 C 106.761719 69.875 106.183594 69.15625 105.382812 69.074219 C 101.914062 68.726562 98.300781 70.289062 96.195312 73.082031 C 95.710938 73.726562 95.839844 74.640625 96.480469 75.125 C 97.125 75.613281 98.039062 75.476562 98.519531 74.839844 Z M 98.519531 74.839844 "/><path style=" stroke:none;fill-rule:nonzero;fill:#000000;fill-opacity:1;" d="M 103.242188 76.703125 C 101.992188 77.402344 101.550781 78.984375 102.25 80.234375 C 102.953125 81.484375 104.53125 81.929688 105.78125 81.226562 C 107.03125 80.523438 107.472656 78.941406 106.773438 77.695312 C 106.070312 76.445312 104.492188 76 103.242188 76.703125 Z M 103.242188 76.703125 "/><path style=" stroke:none;fill-rule:nonzero;fill:#000000;fill-opacity:1;" d="M 128.402344 75.316406 C 127.003906 75.019531 125.625 75.917969 125.332031 77.320312 C 125.035156 78.722656 125.929688 80.097656 127.332031 80.394531 C 128.730469 80.691406 130.105469 79.792969 130.402344 78.390625 C 130.699219 76.988281 129.804688 75.613281 128.402344 75.316406 Z M 128.402344 75.316406 "/><path style=" stroke:none;fill-rule:nonzero;fill:#000000;fill-opacity:1;" d="M 70.425781 84.582031 C 70.984375 84.003906 70.96875 83.078125 70.390625 82.519531 C 68.195312 80.386719 65.09375 86.496094 68.640625 89.582031 C 69.25 90.105469 70.167969 90.039062 70.695312 89.433594 C 71.222656 88.824219 71.15625 87.90625 70.550781 87.375 C 69.796875 86.722656 69.730469 85.300781 70.425781 84.582031 Z M 70.425781 84.582031 "/><path style=" stroke:none;fill-rule:nonzero;fill:#000000;fill-opacity:1;" d="M 115.136719 108.265625 C 115.722656 107.71875 115.757812 106.796875 115.207031 106.207031 C 114.660156 105.617188 113.738281 105.582031 113.148438 106.132812 C 112.746094 106.507812 111.578125 106.34375 111.804688 105.339844 C 111.863281 105.085938 112.007812 104.871094 112.179688 104.777344 C 112.886719 104.394531 113.148438 103.507812 112.765625 102.800781 C 112.382812 102.09375 111.5 101.832031 110.792969 102.210938 C 109.878906 102.707031 109.214844 103.609375 108.96875 104.6875 C 108.09375 108.492188 112.636719 110.597656 115.136719 108.265625 Z M 115.136719 108.265625 "/><path style=" stroke:none;fill-rule:nonzero;fill:#000000;fill-opacity:1;" d="M 147.628906 91.273438 C 145.585938 91.273438 145.246094 93.148438 146.929688 93.855469 C 148.410156 94.484375 151.355469 93.710938 152.886719 93.226562 C 150.367188 92.300781 148.9375 91.273438 147.628906 91.273438 Z M 147.628906 91.273438 "/><path style=" stroke:none;fill-rule:nonzero;fill:#bcc4cc;fill-opacity:1;" d="M 334.425781 260.554688 C 333.859375 259.984375 333.855469 259.0625 334.425781 258.492188 L 348.601562 244.25 C 349.167969 243.679688 350.089844 243.675781 350.660156 244.246094 C 351.230469 244.816406 351.230469 245.738281 350.664062 246.308594 L 336.488281 260.550781 C 335.921875 261.121094 334.996094 261.125 334.425781 260.554688 Z M 334.425781 260.554688 "/><path style=" stroke:none;fill-rule:nonzero;fill:#bcc4cc;fill-opacity:1;" d="M 332.882812 245.855469 C 332.3125 245.285156 332.3125 244.363281 332.878906 243.792969 L 344.78125 231.835938 C 345.347656 231.261719 346.269531 231.261719 346.84375 231.832031 C 347.410156 232.398438 347.414062 233.320312 346.84375 233.894531 L 334.941406 245.851562 C 334.375 246.421875 333.453125 246.425781 332.882812 245.855469 Z M 332.882812 245.855469 "/><path style=" stroke:none;fill-rule:nonzero;fill:#ffb666;fill-opacity:1;" d="M 26.671875 16.230469 C 22.1875 16.230469 18.539062 12.589844 18.53125 8.105469 C 18.523438 3.609375 22.167969 -0.0546875 26.660156 -0.0625 C 26.664062 -0.0625 26.667969 -0.0625 26.675781 -0.0625 C 31.15625 -0.0625 34.796875 3.566406 34.804688 8.074219 C 34.8125 12.574219 31.183594 16.226562 26.6875 16.230469 C 26.683594 16.230469 26.675781 16.230469 26.671875 16.230469 Z M 26.675781 2.851562 C 26.671875 2.851562 26.667969 2.851562 26.664062 2.851562 C 23.78125 2.859375 21.4375 5.210938 21.441406 8.097656 C 21.449219 10.976562 23.792969 13.316406 26.671875 13.316406 C 26.675781 13.316406 26.679688 13.316406 26.683594 13.316406 C 29.566406 13.308594 31.898438 10.972656 31.894531 8.082031 C 31.886719 5.1875 29.558594 2.851562 26.675781 2.851562 Z M 26.675781 2.851562 "/><g clip-rule="nonzero" clip-path="url(#2575c11412)"><path style=" stroke:none;fill-rule:nonzero;fill:#cc0000;fill-opacity:1;" d="M 225.75 133.164062 L 221.925781 133.164062 L 221.925781 122.851562 L 211.726562 112.539062 L 191.324219 112.539062 L 191.324219 133.164062 L 187.5 133.164062 L 187.5 146.054688 L 191.324219 146.054688 L 191.324219 153.789062 L 221.925781 153.789062 L 221.925781 146.054688 L 225.75 146.054688 L 225.75 133.164062 "/></g><path style=" stroke:none;fill-rule:nonzero;fill:#ffffff;fill-opacity:1;" d="M 192.601562 152.5 L 220.648438 152.5 L 220.648438 146.054688 L 192.601562 146.054688 Z M 211.726562 114.363281 L 211.726562 122.851562 L 220.121094 122.851562 Z M 210.449219 124.140625 L 210.449219 113.828125 L 192.601562 113.828125 L 192.601562 133.164062 L 220.648438 133.164062 L 220.648438 124.140625 Z M 210.492188 139.429688 C 210.492188 138.066406 209.992188 137.113281 209.199219 136.515625 C 208.460938 135.953125 207.519531 135.691406 206.066406 135.691406 C 205.195312 135.691406 204.367188 135.75 203.730469 135.851562 L 203.730469 143.441406 C 204.164062 143.5 204.796875 143.558594 205.695312 143.558594 C 207.191406 143.558594 208.417969 143.238281 209.222656 142.558594 C 209.960938 141.929688 210.492188 140.910156 210.492188 139.429688 Z M 206.066406 142.195312 C 205.851562 142.195312 205.613281 142.195312 205.46875 142.160156 L 205.46875 137.101562 C 205.613281 137.066406 205.863281 137.03125 206.25 137.03125 C 207.734375 137.03125 208.664062 137.882812 208.652344 139.488281 C 208.652344 141.332031 207.632812 142.203125 206.066406 142.195312 Z M 199.160156 140.75 C 200.179688 140.75 201.050781 140.496094 201.640625 139.933594 C 202.09375 139.5 202.34375 138.855469 202.34375 138.097656 C 202.34375 137.34375 202.015625 136.699219 201.527344 136.308594 C 201.019531 135.898438 200.257812 135.691406 199.191406 135.691406 C 198.136719 135.691406 197.390625 135.761719 196.855469 135.851562 L 196.855469 143.476562 L 198.566406 143.476562 L 198.566406 140.714844 C 198.726562 140.738281 198.929688 140.75 199.160156 140.75 Z M 198.566406 137.078125 C 198.691406 137.042969 198.929688 137.011719 199.28125 137.011719 C 200.144531 137.011719 200.632812 137.433594 200.632812 138.144531 C 200.632812 138.9375 200.066406 139.40625 199.148438 139.40625 C 198.898438 139.40625 198.714844 139.394531 198.566406 139.359375 Z M 216.585938 137.183594 L 216.585938 135.75 L 211.914062 135.75 L 211.914062 143.476562 L 213.648438 143.476562 L 213.648438 140.371094 L 216.394531 140.371094 L 216.394531 138.949219 L 213.648438 138.949219 L 213.648438 137.183594 L 216.585938 137.183594 "/><g clip-rule="nonzero" clip-path="url(#838f92dece)"><path style=" stroke:none;fill-rule:nonzero;fill:#000000;fill-opacity:1;" d="M 361.335938 113.566406 C 360.980469 113.214844 360.613281 112.855469 360.25 112.492188 C 359.886719 112.128906 359.527344 111.761719 359.175781 111.402344 C 356.664062 108.832031 355.167969 107.378906 353.609375 107.378906 L 341.933594 107.378906 C 338.695312 107.378906 336.0625 110.019531 336.0625 113.261719 L 336.0625 123.855469 L 338.886719 123.855469 L 338.886719 113.246094 C 338.886719 111.621094 340.199219 110.304688 341.820312 110.304688 L 352.574219 110.296875 C 353.632812 110.566406 353.617188 111.871094 353.617188 113.175781 L 353.617188 117.660156 C 353.617188 118.46875 354.277344 119.128906 355.085938 119.128906 L 359.488281 119.128906 C 360.953125 119.128906 362.425781 119.136719 362.425781 120.601562 L 362.425781 139.746094 C 362.425781 141.367188 361.109375 142.6875 359.488281 142.6875 L 341.820312 142.6875 C 340.199219 142.6875 338.886719 141.367188 338.886719 139.746094 L 338.886719 135.035156 L 336.027344 135.035156 L 336.027344 139.746094 C 336.027344 142.988281 338.660156 145.628906 341.898438 145.628906 L 359.480469 145.628906 C 362.714844 145.628906 365.351562 142.988281 365.351562 139.746094 L 365.351562 119.148438 C 365.351562 117.585938 363.898438 116.085938 361.335938 113.566406 Z M 361.335938 113.566406 "/></g><path style=" stroke:none;fill-rule:nonzero;fill:#000000;fill-opacity:1;" d="M 335.65625 126.851562 C 335.441406 126.851562 335.300781 126.859375 335.199219 126.875 L 335.199219 128.964844 C 335.289062 128.972656 335.394531 128.976562 335.535156 128.976562 C 336.3125 128.976562 336.753906 128.566406 336.753906 127.851562 C 336.753906 127.027344 336.15625 126.851562 335.65625 126.851562 Z M 335.65625 126.851562 "/><g clip-rule="nonzero" clip-path="url(#324bb0756f)"><path style=" stroke:none;fill-rule:nonzero;fill:#000000;fill-opacity:1;" d="M 358.011719 123.5625 L 331.59375 123.5625 C 330.78125 123.5625 330.125 124.222656 330.125 125.03125 L 330.125 133.859375 C 330.125 134.671875 330.78125 135.332031 331.59375 135.332031 L 358.011719 135.332031 C 358.820312 135.332031 359.480469 134.671875 359.480469 133.859375 L 359.480469 125.03125 C 359.480469 124.222656 358.820312 123.5625 358.011719 123.5625 Z M 338.144531 129.949219 C 337.539062 130.578125 336.640625 130.90625 335.542969 130.90625 C 335.414062 130.90625 335.300781 130.898438 335.199219 130.890625 L 335.199219 133.640625 C 335.199219 133.769531 335.097656 133.875 334.96875 133.875 L 333.289062 133.875 C 333.15625 133.875 333.054688 133.769531 333.054688 133.640625 L 333.054688 125.34375 C 333.054688 125.234375 333.132812 125.136719 333.242188 125.113281 C 333.867188 124.996094 334.648438 124.9375 335.578125 124.9375 C 336.671875 124.9375 337.472656 125.175781 338.023438 125.667969 C 338.578125 126.152344 338.902344 126.925781 338.902344 127.789062 C 338.898438 128.6875 338.632812 129.457031 338.144531 129.949219 Z M 347.0625 133.640625 C 347.0625 133.769531 346.960938 133.875 346.832031 133.875 L 345.050781 133.875 C 344.960938 133.875 344.878906 133.824219 344.839844 133.742188 L 343.238281 130.5 C 342.992188 130 342.679688 129.34375 342.386719 128.65625 C 342.40625 129.390625 342.417969 130.195312 342.417969 131.109375 L 342.417969 133.640625 C 342.417969 133.769531 342.3125 133.875 342.183594 133.875 L 340.628906 133.875 C 340.5 133.875 340.394531 133.769531 340.394531 133.640625 L 340.394531 125.234375 C 340.394531 125.101562 340.5 125 340.628906 125 L 342.605469 125 C 342.695312 125 342.773438 125.050781 342.8125 125.128906 L 344.371094 128.210938 C 344.605469 128.671875 344.84375 129.203125 345.078125 129.765625 C 345.050781 129.140625 345.039062 128.457031 345.039062 127.679688 L 345.039062 125.234375 C 345.039062 125.105469 345.144531 125 345.277344 125 L 346.832031 125 C 346.960938 125 347.066406 125.105469 347.066406 125.234375 L 347.066406 133.640625 Z M 356.578125 133.253906 C 356.578125 133.351562 356.519531 133.4375 356.425781 133.472656 C 355.804688 133.710938 354.800781 133.960938 353.839844 133.960938 C 352.429688 133.960938 351.382812 133.566406 350.628906 132.761719 C 349.90625 131.980469 349.507812 130.832031 349.507812 129.535156 C 349.515625 126.726562 351.289062 124.910156 354.019531 124.910156 C 355.015625 124.910156 355.800781 125.128906 356.203125 125.335938 C 356.300781 125.382812 356.347656 125.492188 356.328125 125.597656 L 355.972656 127.132812 C 355.953125 127.203125 355.90625 127.261719 355.839844 127.289062 C 355.773438 127.320312 355.699219 127.320312 355.636719 127.289062 C 355.3125 127.121094 354.867188 126.949219 354.007812 126.949219 C 352.597656 126.949219 351.753906 127.878906 351.753906 129.4375 C 351.753906 130.992188 352.570312 131.957031 353.886719 131.957031 C 354.148438 131.957031 354.347656 131.933594 354.472656 131.90625 L 354.472656 130.542969 L 353.550781 130.542969 C 353.421875 130.542969 353.316406 130.4375 353.316406 130.308594 L 353.316406 128.824219 C 353.316406 128.695312 353.421875 128.589844 353.550781 128.589844 L 356.34375 128.589844 C 356.472656 128.589844 356.574219 128.695312 356.574219 128.824219 L 356.574219 133.253906 Z M 356.578125 133.253906 "/></g><g clip-rule="nonzero" clip-path="url(#b76776567d)"><path style=" stroke:none;fill-rule:nonzero;fill:#000000;fill-opacity:1;" d="M 312.25 143.964844 C 311.203125 142.929688 310.460938 142.625 308.984375 142.625 L 290.226562 142.625 C 288.167969 142.625 287.355469 143.425781 287.355469 145.46875 L 287.355469 182.53125 C 287.355469 184.574219 288.167969 185.375 290.226562 185.375 L 320.464844 185.375 C 322.527344 185.375 323.335938 184.574219 323.335938 182.53125 L 323.335938 156.835938 C 323.335938 155.371094 323.03125 154.636719 321.984375 153.601562 Z M 320.828125 182.132812 C 320.828125 182.675781 320.609375 182.890625 320.0625 182.890625 L 290.632812 182.890625 C 290.085938 182.890625 289.867188 182.675781 289.867188 182.132812 L 289.867188 172.9375 L 320.824219 172.9375 L 320.824219 182.132812 Z M 295.226562 170.570312 L 295.441406 169.050781 C 295.703125 169.136719 296.039062 169.199219 296.414062 169.199219 C 297.210938 169.199219 297.710938 168.84375 297.710938 167.542969 L 297.710938 162.304688 L 299.609375 162.304688 L 299.609375 167.570312 C 299.609375 169.941406 298.460938 170.769531 296.613281 170.769531 C 296.175781 170.769531 295.601562 170.695312 295.226562 170.570312 Z M 301.191406 170.632812 L 301.191406 162.417969 C 301.777344 162.316406 302.601562 162.242188 303.761719 162.242188 C 304.9375 162.242188 305.773438 162.464844 306.332031 162.910156 C 306.871094 163.332031 307.230469 164.023438 307.230469 164.839844 C 307.230469 165.652344 306.957031 166.347656 306.457031 166.816406 C 305.808594 167.421875 304.847656 167.691406 303.726562 167.691406 C 303.476562 167.691406 303.25 167.679688 303.078125 167.65625 L 303.078125 170.632812 Z M 312.695312 169.199219 C 313.132812 169.199219 313.480469 169.148438 313.632812 169.074219 L 313.632812 167.332031 L 312.335938 167.332031 L 312.335938 165.863281 L 315.464844 165.863281 L 315.464844 170.25 C 314.878906 170.449219 313.769531 170.71875 312.660156 170.71875 C 311.125 170.71875 310.011719 170.335938 309.238281 169.59375 C 308.464844 168.878906 308.042969 167.792969 308.054688 166.566406 C 308.066406 163.800781 310.101562 162.21875 312.859375 162.21875 C 313.945312 162.21875 314.78125 162.429688 315.191406 162.628906 L 314.792969 164.132812 C 314.328125 163.9375 313.757812 163.777344 312.832031 163.777344 C 311.246094 163.777344 310.050781 164.664062 310.050781 166.46875 C 310.050781 168.1875 311.136719 169.199219 312.695312 169.199219 Z M 320.828125 160.050781 L 289.867188 160.050781 L 289.867188 145.867188 C 289.867188 145.324219 290.082031 145.113281 290.632812 145.113281 L 309.75 145.113281 C 310.023438 145.113281 310.132812 145.21875 310.132812 145.488281 L 310.132812 152.859375 C 310.132812 154.898438 310.941406 155.699219 313.003906 155.699219 L 320.445312 155.699219 C 320.71875 155.699219 320.828125 155.808594 320.828125 156.078125 Z M 320.828125 160.050781 "/></g><path style=" stroke:none;fill-rule:nonzero;fill:#000000;fill-opacity:1;" d="M 305.347656 164.886719 C 305.347656 164.121094 304.8125 163.664062 303.863281 163.664062 C 303.476562 163.664062 303.214844 163.703125 303.078125 163.738281 L 303.078125 166.195312 C 303.238281 166.234375 303.4375 166.246094 303.714844 166.246094 C 304.722656 166.246094 305.347656 165.738281 305.347656 164.886719 Z M 305.347656 164.886719 "/><g clip-rule="nonzero" clip-path="url(#11acd94349)"><path style=" stroke:none;fill-rule:nonzero;fill:#4eaffc;fill-opacity:1;" d="M 133.339844 369.625 L 244.234375 369.625 C 254.3125 369.625 262.480469 361.453125 262.480469 351.375 C 262.480469 341.296875 254.3125 333.125 244.234375 333.125 L 133.339844 333.125 Z M 133.339844 369.625 "/></g><g clip-rule="nonzero" clip-path="url(#ebf38a0f12)"><path style=" stroke:none;fill-rule:nonzero;fill:#ffffff;fill-opacity:1;" d="M 159.015625 351.375 C 159.015625 352.136719 158.980469 352.894531 158.90625 353.652344 C 158.832031 354.410156 158.71875 355.164062 158.570312 355.910156 C 158.421875 356.65625 158.238281 357.394531 158.015625 358.125 C 157.796875 358.851562 157.539062 359.570312 157.246094 360.273438 C 156.957031 360.976562 156.628906 361.664062 156.273438 362.335938 C 155.914062 363.007812 155.523438 363.660156 155.097656 364.292969 C 154.675781 364.925781 154.222656 365.535156 153.738281 366.125 C 153.257812 366.710938 152.746094 367.277344 152.207031 367.816406 C 151.667969 368.351562 151.105469 368.863281 150.515625 369.347656 C 149.929688 369.828125 149.316406 370.28125 148.683594 370.707031 C 148.050781 371.128906 147.398438 371.519531 146.726562 371.878906 C 146.054688 372.238281 145.367188 372.5625 144.664062 372.855469 C 143.960938 373.144531 143.246094 373.402344 142.515625 373.621094 C 141.789062 373.84375 141.050781 374.027344 140.304688 374.175781 C 139.558594 374.324219 138.804688 374.4375 138.046875 374.511719 C 137.289062 374.585938 136.53125 374.625 135.769531 374.625 C 135.007812 374.625 134.246094 374.585938 133.488281 374.511719 C 132.730469 374.4375 131.980469 374.324219 131.234375 374.175781 C 130.484375 374.027344 129.746094 373.84375 129.019531 373.621094 C 128.289062 373.402344 127.574219 373.144531 126.871094 372.855469 C 126.167969 372.5625 125.480469 372.238281 124.808594 371.878906 C 124.136719 371.519531 123.484375 371.128906 122.851562 370.707031 C 122.21875 370.28125 121.609375 369.828125 121.019531 369.347656 C 120.429688 368.863281 119.867188 368.351562 119.328125 367.816406 C 118.789062 367.277344 118.28125 366.710938 117.796875 366.125 C 117.3125 365.535156 116.859375 364.925781 116.4375 364.292969 C 116.015625 363.660156 115.625 363.007812 115.265625 362.335938 C 114.90625 361.664062 114.582031 360.976562 114.289062 360.273438 C 113.996094 359.570312 113.742188 358.851562 113.519531 358.125 C 113.300781 357.394531 113.113281 356.65625 112.964844 355.910156 C 112.816406 355.164062 112.707031 354.410156 112.632812 353.652344 C 112.554688 352.894531 112.519531 352.136719 112.519531 351.375 C 112.519531 350.613281 112.554688 349.855469 112.632812 349.097656 C 112.707031 348.339844 112.816406 347.585938 112.964844 346.839844 C 113.113281 346.09375 113.300781 345.355469 113.519531 344.625 C 113.742188 343.898438 113.996094 343.179688 114.289062 342.476562 C 114.582031 341.773438 114.90625 341.085938 115.265625 340.414062 C 115.625 339.742188 116.015625 339.089844 116.4375 338.457031 C 116.859375 337.824219 117.3125 337.214844 117.796875 336.625 C 118.28125 336.039062 118.789062 335.472656 119.328125 334.933594 C 119.867188 334.398438 120.429688 333.886719 121.019531 333.402344 C 121.609375 332.921875 122.21875 332.46875 122.851562 332.042969 C 123.484375 331.621094 124.136719 331.230469 124.808594 330.871094 C 125.480469 330.511719 126.167969 330.1875 126.871094 329.894531 C 127.574219 329.605469 128.289062 329.347656 129.019531 329.128906 C 129.746094 328.90625 130.484375 328.722656 131.234375 328.574219 C 131.980469 328.425781 132.730469 328.3125 133.488281 328.238281 C 134.246094 328.164062 135.007812 328.125 135.769531 328.125 C 136.53125 328.125 137.289062 328.164062 138.046875 328.238281 C 138.804688 328.3125 139.558594 328.425781 140.304688 328.574219 C 141.050781 328.722656 141.789062 328.90625 142.515625 329.128906 C 143.246094 329.347656 143.960938 329.605469 144.664062 329.894531 C 145.367188 330.1875 146.054688 330.511719 146.726562 330.871094 C 147.398438 331.230469 148.050781 331.621094 148.683594 332.042969 C 149.316406 332.46875 149.929688 332.921875 150.515625 333.402344 C 151.105469 333.886719 151.667969 334.398438 152.207031 334.933594 C 152.746094 335.472656 153.257812 336.039062 153.738281 336.625 C 154.222656 337.214844 154.675781 337.824219 155.097656 338.457031 C 155.523438 339.089844 155.914062 339.742188 156.273438 340.414062 C 156.628906 341.085938 156.957031 341.773438 157.246094 342.476562 C 157.539062 343.179688 157.796875 343.898438 158.015625 344.625 C 158.238281 345.355469 158.421875 346.09375 158.570312 346.839844 C 158.71875 347.585938 158.832031 348.339844 158.90625 349.097656 C 158.980469 349.855469 159.015625 350.613281 159.015625 351.375 Z M 159.015625 351.375 "/></g><path style=" stroke:none;fill-rule:nonzero;fill:#4eaffc;fill-opacity:1;" d="M 135.769531 371.933594 C 124.433594 371.933594 115.210938 362.710938 115.210938 351.375 C 115.210938 340.039062 124.433594 330.816406 135.769531 330.816406 C 147.105469 330.816406 156.324219 340.039062 156.324219 351.375 C 156.324219 362.710938 147.105469 371.933594 135.769531 371.933594 Z M 135.769531 331.402344 C 124.753906 331.402344 115.792969 340.363281 115.792969 351.375 C 115.792969 362.386719 124.753906 371.347656 135.769531 371.347656 C 146.78125 371.347656 155.742188 362.386719 155.742188 351.375 C 155.742188 340.363281 146.78125 331.402344 135.769531 331.402344 Z M 135.769531 331.402344 "/><path style=" stroke:none;fill-rule:nonzero;fill:#4eaffc;fill-opacity:1;" d="M 135.449219 363.671875 C 135.402344 363.648438 135.355469 363.632812 135.304688 363.613281 C 134.339844 363.355469 133.742188 362.601562 133.742188 361.605469 C 133.738281 359.007812 133.738281 356.410156 133.742188 353.8125 L 133.742188 346.03125 C 133.617188 346.148438 133.53125 346.21875 133.453125 346.296875 C 132.308594 347.4375 131.179688 348.59375 130.023438 349.722656 C 128.867188 350.851562 126.992188 350.320312 126.621094 348.773438 C 126.433594 348 126.671875 347.339844 127.230469 346.78125 C 129.03125 344.984375 130.832031 343.1875 132.628906 341.382812 C 133.175781 340.839844 133.71875 340.289062 134.265625 339.746094 C 135.171875 338.855469 136.375 338.855469 137.277344 339.753906 C 139.632812 342.101562 141.984375 344.457031 144.332031 346.808594 C 144.902344 347.378906 145.113281 348.0625 144.898438 348.839844 C 144.695312 349.59375 144.1875 350.078125 143.429688 350.261719 C 142.671875 350.445312 142.011719 350.230469 141.460938 349.675781 C 140.34375 348.554688 139.222656 347.433594 138.101562 346.3125 C 138.027344 346.226562 137.957031 346.132812 137.894531 346.039062 L 137.796875 346.085938 L 137.796875 346.441406 C 137.796875 351.332031 137.777344 356.222656 137.8125 361.109375 C 137.820312 362.386719 137.410156 363.277344 136.148438 363.671875 Z M 135.449219 363.671875 "/><path style=" stroke:none;fill-rule:nonzero;fill:#ffffff;fill-opacity:1;" d="M 126.367188 361 C 126.445312 361.164062 126.507812 361.335938 126.605469 361.488281 C 126.792969 361.773438 127.085938 361.910156 127.402344 362 L 126.367188 362 Z M 126.367188 361 "/><path style=" stroke:none;fill-rule:nonzero;fill:#fffaf3;fill-opacity:1;" d="M 174.222656 353.539062 L 174.222656 345.265625 L 177.019531 345.265625 L 177.019531 353.296875 C 177.019531 354.21875 177.453125 355.007812 178.9375 355.007812 C 180.421875 355.007812 180.859375 354.21875 180.859375 353.296875 L 180.859375 345.265625 L 183.652344 345.265625 L 183.652344 353.539062 C 183.652344 356.160156 181.625 357.730469 178.9375 357.730469 C 176.25 357.730469 174.222656 356.160156 174.222656 353.539062 Z M 174.222656 353.539062 "/><path style=" stroke:none;fill-rule:nonzero;fill:#fffaf3;fill-opacity:1;" d="M 194.5625 349.453125 C 194.5625 351.777344 192.695312 353.644531 190.285156 353.644531 L 188.449219 353.644531 L 188.449219 357.484375 L 185.660156 357.484375 L 185.660156 345.265625 L 190.285156 345.265625 C 192.695312 345.265625 194.5625 347.132812 194.5625 349.453125 Z M 191.769531 349.453125 C 191.769531 348.5625 191.140625 347.882812 190.285156 347.882812 L 188.449219 347.882812 L 188.449219 351.027344 L 190.285156 351.027344 C 191.140625 351.027344 191.769531 350.34375 191.769531 349.453125 Z M 191.769531 349.453125 "/><path style=" stroke:none;fill-rule:nonzero;fill:#fffaf3;fill-opacity:1;" d="M 203.117188 354.796875 L 203.117188 357.484375 L 195.957031 357.484375 L 195.957031 345.265625 L 198.75 345.265625 L 198.75 354.796875 Z M 203.117188 354.796875 "/><path style=" stroke:none;fill-rule:nonzero;fill:#fffaf3;fill-opacity:1;" d="M 203.117188 351.375 C 203.117188 347.777344 205.960938 345.019531 209.46875 345.019531 C 212.976562 345.019531 215.824219 347.78125 215.824219 351.375 C 215.824219 354.96875 212.980469 357.730469 209.46875 357.730469 C 205.960938 357.730469 203.117188 354.972656 203.117188 351.375 Z M 213.03125 351.375 C 213.03125 349.191406 211.460938 347.746094 209.46875 347.746094 C 207.480469 347.746094 205.910156 349.191406 205.910156 351.375 C 205.910156 353.558594 207.480469 355.003906 209.46875 355.003906 C 211.460938 355.003906 213.03125 353.558594 213.03125 351.375 Z M 213.03125 351.375 "/><path style=" stroke:none;fill-rule:nonzero;fill:#fffaf3;fill-opacity:1;" d="M 224.117188 355.566406 L 219.578125 355.566406 L 218.964844 357.484375 L 215.910156 357.484375 L 220.0625 345.265625 L 223.625 345.265625 L 227.78125 357.484375 L 224.726562 357.484375 Z M 223.277344 352.945312 L 221.847656 348.460938 L 220.414062 352.945312 Z M 223.277344 352.945312 "/><path style=" stroke:none;fill-rule:nonzero;fill:#fffaf3;fill-opacity:1;" d="M 239.65625 351.375 C 239.65625 354.832031 237.089844 357.484375 233.71875 357.484375 L 228.832031 357.484375 L 228.832031 345.265625 L 233.71875 345.265625 C 237.085938 345.265625 239.65625 347.917969 239.65625 351.375 Z M 236.964844 351.375 C 236.964844 349.277344 235.640625 347.953125 233.71875 347.953125 L 231.625 347.953125 L 231.625 354.796875 L 233.71875 354.796875 C 235.636719 354.796875 236.964844 353.472656 236.964844 351.375 Z M 236.964844 351.375 "/></g></svg>